<?xml version="1.0" encoding="utf-8"?>
<!-- Generator: Adobe Illustrator 16.0.0, SVG Export Plug-In . SVG Version: 6.00 Build 0)  -->
<!DOCTYPE svg PUBLIC "-//W3C//DTD SVG 1.1//EN" "http://www.w3.org/Graphics/SVG/1.1/DTD/svg11.dtd">
<svg version="1.1" id="Calque_1" xmlns="http://www.w3.org/2000/svg" xmlns:xlink="http://www.w3.org/1999/xlink" x="0px" y="0px"
	 width="2500px" height="2437.754px" viewBox="2675.465 0.246 2500 2437.754" enable-background="new 2675.465 0.246 2500 2437.754"
	 xml:space="preserve">
<radialGradient id="SVGID_1_" cx="979.5618" cy="990.9463" r="0.7602" gradientTransform="matrix(2291.6716 0 0 -2218.7549 -2241300.25 2199270.5)" gradientUnits="userSpaceOnUse">
	<stop  offset="0" style="stop-color:#442F55;stop-opacity:0.98"/>
	<stop  offset="1" style="stop-color:#12002C"/>
</radialGradient>
<path fill="url(#SVGID_1_)" d="M2779.628,104.411h2291.673v2229.173H2779.628V104.411z"/>
<path fill="#D8A1FF" d="M2779.628,104.411h2291.673v2229.173H2779.628V104.411z M2675.463,2437.754h2500.004V0.246H2675.463
	V2437.754z M4444.213,1175.25c53.122,0,71.874,0,77.081-2.084c0-7.29,2.083-12.502,2.083-17.71
	c0-56.251-27.084-160.416-135.415-160.416c-100.004,0-142.706,87.497-153.126,180.21H4444.213L4444.213,1175.25z M4232.758,1317.956
	c2.083,140.627,68.749,235.419,227.082,235.419c61.459,0,114.581-8.328,169.794-32.287c7.291-3.125,12.503-2.084,12.503,7.29
	v130.208c0,10.415-3.125,15.627-10.415,20.835c-55.21,27.079-123.963,39.582-209.377,39.582
	c-274.997,0-378.125-203.123-378.125-429.164c0-245.835,127.087-446.875,351.045-446.875c227.083,0,306.252,190.625,306.252,345.834
	c0,50.002-3.125,90.626-8.333,110.419c-2.083,8.332-5.207,11.461-13.544,13.544c-20.835,3.124-82.293,7.286-173.96,7.286h-272.922
	V1317.956z M3674.427,1211.707c-29.167-115.626-100.004-367.71-126.046-489.585h-2.083
	c-21.872,121.875-79.169,328.123-121.876,489.585H3674.427z M3381.711,1380.46l-82.289,311.459
	c-2.083,8.328-5.208,11.457-15.627,11.457h-153.126c-10.415,0-12.502-3.124-10.415-15.623l295.832-1034.38
	c5.207-18.748,8.332-33.334,10.415-85.414c0-7.291,3.125-10.415,8.332-10.415h218.751c7.29,0,10.415,2.083,12.502,10.415
	l331.248,1121.877c2.083,8.328,0,13.54-8.332,13.54h-171.873c-8.332,0-13.544-3.124-15.627-10.411l-85.418-312.5h-334.373V1380.46z"
	/>
</svg>
