<?xml version="1.0" encoding="utf-8"?>
<!-- Generator: Adobe Illustrator 16.0.0, SVG Export Plug-In . SVG Version: 6.00 Build 0)  -->
<!DOCTYPE svg PUBLIC "-//W3C//DTD SVG 1.1//EN" "http://www.w3.org/Graphics/SVG/1.1/DTD/svg11.dtd">
<svg version="1.1" id="Calque_2_1_" xmlns="http://www.w3.org/2000/svg" xmlns:xlink="http://www.w3.org/1999/xlink" x="0px"
	 y="0px" width="500px" height="500px" viewBox="0 0 500 500" enable-background="new 0 0 500 500" xml:space="preserve">
<g>
	<path fill-rule="evenodd" clip-rule="evenodd" fill="#FEFEFE" d="M0.356,313.745c0-50.199,0.007-100.398-0.037-150.597
		c-0.001-1.465,0.33-1.795,1.794-1.794c79.888,0.042,159.777,0.037,239.665,0.037c-0.337,0.578-0.922,0.358-1.407,0.417
		c-8.753,1.082-17.005,3.633-24.575,8.251c-26.782,16.338-27.982,53.043-3.391,70.818c7.249,5.24,15.344,8.719,23.409,12.343
		c10.256,4.608,20.758,8.686,30.715,13.943c5.176,2.734,9.887,6.114,12.755,11.428c5.363,9.938,4.646,27.728-11.273,35.517
		c-12.386,6.062-25.276,5.766-38.225,2.053c-11.046-3.167-20.52-9.093-28.686-17.122c-1.053-1.035-1.562-1.045-2.549,0.105
		c-3.431,4.001-6.929,7.95-10.551,11.778c-1.241,1.311-0.985,1.973,0.166,3.089c16.4,15.911,36.016,23.76,58.848,23.668
		c12.327-0.05,24.021-2.54,34.687-8.949c22.606-13.587,27.196-39.272,18.661-58.777c-4.062-9.28-11.381-15.529-19.952-20.476
		c-8.531-4.924-17.798-8.26-26.744-12.289c-7.465-3.362-15.206-6.127-22.354-10.176c-5.283-2.992-10.026-6.627-12.6-12.36
		c-4.5-10.023-2.121-24.754,12.689-30.973c10.31-4.329,20.933-4.068,31.569-1.32c8.552,2.21,15.914,6.666,22.466,12.498
		c0.961,0.855,1.428,0.819,2.265-0.147c3.195-3.689,6.444-7.335,9.776-10.9c1.012-1.082,0.913-1.65-0.112-2.632
		c-9.731-9.333-21.186-15.399-34.353-18.224c-2.89-0.62-5.82-1.047-8.732-1.563c81.45,0,162.901,0.004,244.353-0.037
		c1.465,0,1.796,0.33,1.795,1.794c-0.044,56.449-0.037,112.898-0.037,169.348c-1.261-0.625-1.963-1.832-2.858-2.818
		c-22.182-24.432-44.343-48.881-66.51-73.325c-1.708-1.884-1.72-1.883-3.362-0.073c-22.736,25.07-45.472,50.141-68.198,75.22
		c-0.315,0.35-0.875,0.604-0.713,1.374c7.531,0,15.064-0.016,22.597,0.019c0.965,0.004,1.358-0.649,1.865-1.208
		c14.96-16.482,29.931-32.956,44.838-49.486c1.108-1.229,1.571-1.051,2.57,0.055c14.923,16.516,29.898,32.983,44.828,49.494
		c0.781,0.865,1.561,1.156,2.687,1.151c7.419-0.04,14.838-0.015,22.257-0.011c0,3.059-0.038,6.119,0.025,9.177
		c0.017,0.833-0.15,1.157-0.999,0.988c-0.251-0.051-0.52-0.008-0.78-0.008c-165.511,0-331.022-0.003-496.534,0.038
		c-1.49,0-1.795-0.366-1.784-1.807c0.073-9.046,0.037-18.093,0.037-27.14c2.112,2.205,4.217,4.418,6.335,6.616
		c14.867,15.429,32.819,21.09,53.808,16.793c10.239-2.098,19.703-6.102,27.27-13.484c13.435-13.108,20.011-29.476,20.215-47.994
		c0.393-35.798,0.122-71.603,0.167-107.405c0.002-1.397-0.44-1.751-1.778-1.735c-5.532,0.066-11.066,0.027-16.599,0.028
		c-2.608,0-2.609,0.001-2.612,2.663c-0.038,34.175-0.036,68.35-0.144,102.525c-0.026,8.25-1.472,16.284-4.64,23.972
		c-8.344,20.249-32.886,28.931-52.076,18.443c-5.482-2.997-9.596-7.525-13.873-11.89c-3.319-3.388-3.234-3.351-6.347,0.187
		C6.866,306.507,3.856,310.346,0.356,313.745z M500.077,166.616c-0.733-0.55-1.406-0.333-2.029-0.335
		c-6.575-0.018-13.151,0.04-19.726-0.048c-1.582-0.021-2.627,0.475-3.678,1.64c-14.522,16.094-29.086,32.151-43.66,48.197
		c-1.875,2.063-1.338,2.215-3.353-0.005c-14.612-16.101-29.222-32.204-43.794-48.341c-0.96-1.063-1.914-1.503-3.351-1.486
		c-6.641,0.075-13.281,0.026-19.922,0.044c-0.624,0.001-1.295-0.212-1.967,0.279c0.333,0.41,0.632,0.815,0.969,1.188
		c22.911,25.272,45.833,50.533,68.708,75.837c1.026,1.135,1.421,0.686,2.178-0.15c20.017-22.097,40.054-44.175,60.084-66.259
		C493.717,173.67,496.882,170.153,500.077,166.616z"/>
	<path fill-rule="evenodd" clip-rule="evenodd" fill="#88898C" d="M254.28,161.391c2.912,0.516,5.843,0.942,8.732,1.563
		c13.167,2.825,24.621,8.89,34.353,18.224c1.025,0.982,1.124,1.551,0.112,2.632c-3.332,3.565-6.581,7.211-9.776,10.9
		c-0.837,0.967-1.304,1.003-2.265,0.147c-6.552-5.832-13.914-10.288-22.466-12.498c-10.636-2.748-21.259-3.009-31.569,1.32
		c-14.811,6.219-17.19,20.95-12.689,30.973c2.574,5.733,7.317,9.368,12.6,12.36c7.147,4.048,14.889,6.813,22.354,10.176
		c8.946,4.029,18.213,7.364,26.744,12.289c8.571,4.947,15.891,11.196,19.952,20.476c8.535,19.505,3.945,45.19-18.661,58.777
		c-10.665,6.409-22.359,8.899-34.687,8.949c-22.833,0.092-42.448-7.757-58.848-23.668c-1.15-1.116-1.407-1.778-0.166-3.089
		c3.622-3.828,7.121-7.777,10.551-11.778c0.987-1.15,1.496-1.141,2.549-0.105c8.166,8.029,17.639,13.955,28.686,17.122
		c12.949,3.713,25.839,4.009,38.225-2.053c15.919-7.789,16.637-25.578,11.273-35.517c-2.868-5.313-7.579-8.693-12.755-11.428
		c-9.957-5.258-20.459-9.335-30.715-13.943c-8.065-3.624-16.16-7.103-23.409-12.343c-24.591-17.775-23.391-54.48,3.391-70.818
		c7.57-4.618,15.822-7.169,24.575-8.251c0.485-0.06,1.07,0.161,1.407-0.417C245.946,161.391,250.113,161.391,254.28,161.391z"/>
	<path fill-rule="evenodd" clip-rule="evenodd" fill="#88898C" d="M0.356,313.745c3.5-3.399,6.51-7.238,9.725-10.892
		c3.113-3.537,3.028-3.574,6.347-0.187c4.277,4.364,8.391,8.893,13.873,11.89c19.19,10.487,43.732,1.806,52.076-18.443
		c3.168-7.688,4.613-15.722,4.64-23.972c0.108-34.175,0.106-68.351,0.144-102.525c0.003-2.661,0.004-2.662,2.612-2.663
		c5.533-0.001,11.067,0.038,16.599-0.028c1.338-0.016,1.78,0.338,1.778,1.735c-0.044,35.802,0.227,71.607-0.167,107.405
		c-0.204,18.519-6.78,34.886-20.215,47.994c-7.567,7.383-17.03,11.387-27.27,13.484c-20.989,4.297-38.94-1.364-53.808-16.793
		c-2.119-2.198-4.224-4.411-6.335-6.616C0.356,314.006,0.356,313.875,0.356,313.745z"/>
	<path fill-rule="evenodd" clip-rule="evenodd" fill="#E43936" d="M500.391,332.887c-7.419-0.004-14.838-0.029-22.257,0.011
		c-1.126,0.005-1.905-0.286-2.687-1.151c-14.93-16.511-29.905-32.979-44.828-49.494c-0.999-1.105-1.462-1.283-2.57-0.055
		c-14.907,16.53-29.878,33.004-44.838,49.486c-0.507,0.559-0.9,1.212-1.865,1.208c-7.532-0.034-15.065-0.019-22.597-0.019
		c-0.162-0.771,0.397-1.024,0.713-1.374c22.727-25.079,45.462-50.149,68.198-75.22c1.643-1.81,1.654-1.811,3.362,0.073
		c22.167,24.444,44.328,48.894,66.51,73.325c0.896,0.986,1.598,2.193,2.858,2.818C500.391,332.626,500.391,332.757,500.391,332.887z
		"/>
	<path fill-rule="evenodd" clip-rule="evenodd" fill="#E43936" d="M500.077,166.616c-3.195,3.537-6.36,7.054-9.54,10.559
		c-20.03,22.084-40.067,44.163-60.084,66.259c-0.757,0.835-1.151,1.285-2.178,0.15c-22.875-25.304-45.797-50.565-68.708-75.837
		c-0.337-0.372-0.636-0.778-0.969-1.188c0.672-0.491,1.343-0.278,1.967-0.279c6.641-0.018,13.281,0.031,19.922-0.044
		c1.437-0.017,2.391,0.423,3.351,1.486c14.572,16.138,29.182,32.241,43.794,48.341c2.015,2.22,1.478,2.068,3.353,0.005
		c14.574-16.046,29.138-32.104,43.66-48.197c1.051-1.165,2.096-1.661,3.678-1.64c6.574,0.088,13.15,0.03,19.726,0.048
		C498.671,166.283,499.344,166.066,500.077,166.616z"/>
</g>
</svg>
